#!OML:ASF H:\Terrain\Walking\May29\JustinRory\Justin.ASF
:FULLY-SPECIFIED
:DEGREES
1
root 6.52936 17.6329 -15.9897 1.78319 -0.138006 -0.941738
lowerback 1.16474 -2.10347 -0.119538
upperback 0.51315 -2.80317 3.06378
thorax 0.0330918 -1.40887 3.23945
lowerneck -2.95579 -12.8531 -17.0416
upperneck 9.16844 -17.4116 11.1035
head 5.71349 -8.66541 4.7824
rclavicle -3.25013e-014 9.54166e-015
rhumerus 4.90628 11.7292 -60.6839
rradius 104.477
rwrist 9.43172
rhand -19.7593 30.2176
rfingers 7.12502
rthumb 6.57221 0.339536
lclavicle -3.25013e-014 9.54166e-015
lhumerus -4.93013 -0.616448 60.9194
lradius 103.111
lwrist -16.1912
lhand -1.20109 37.2234
lfingers 7.12502
lthumb 24.4394 65.6845
rfemur -6.07371 -3.02877 23.4743
rtibia 19.2386
rfoot -12.8585 -12.0823
rtoes 5.45636
lfemur -7.53746 -0.050673 -10.2866
ltibia 21.8791
lfoot -11.2024 0.178903
ltoes -19.7806
2
root 6.55799 17.6285 -15.9901 1.76481 -0.221073 -1.48774
lowerback 0.803575 -2.05792 0.345653
upperback 0.720728 -2.75179 3.23964
thorax 0.432089 -1.38611 3.13967
lowerneck -4.57707 -12.9607 -16.8735
upperneck 11.0493 -17.3543 10.3494
head 6.4844 -8.6168 4.38738
rclavicle 1.88348e-014 1.35174e-014
rhumerus 5.17584 11.3981 -60.4711
rradius 104.468
rwrist 9.37699
rhand -19.4373 29.8437
rfingers 7.12502
rthumb 6.88303 -0.0243664
lclavicle 1.88348e-014 1.35174e-014
lhumerus -3.9951 -0.580011 60.9241
lradius 102.811
lwrist -16.3815
lhand -1.23149 37.4334
lfingers 7.12502
lthumb 24.4103 65.8984
rfemur -5.83074 -2.69317 24.0018
rtibia 18.8452
rfoot -12.6378 -12.3123
rtoes 5.25423
lfemur -7.68741 0.139973 -9.7493
ltibia 22.2961
lfoot -11.6968 0.0296233
ltoes -16.8307
3
root 6.58881 17.6277 -15.9929 1.70346 -0.23526 -1.63729
lowerback 1.8616 -2.15142 0.11091
upperback -0.0577617 -2.83185 3.57858
thorax -0.926313 -1.41156 3.68761
lowerneck -3.36621 -12.2147 -17.6365
upperneck 11.2667 -16.5687 10.886
head 6.35437 -8.28749 4.84531
rclavicle -1.63997e-014 4.77083e-015
rhumerus 4.42407 12.2704 -60.1675
rradius 104.537
rwrist 9.24517
rhand -19.9926 30.3019
rfingers 7.12502
rthumb 6.34692 0.416962
lclavicle -1.63997e-014 4.77083e-015
lhumerus -5.05993 -0.69872 61.3352
lradius 102.724
lwrist -16.4366
lhand -1.64739 37.1673
lfingers 7.12502
lthumb 24.0116 65.6855
rfemur -5.84912 -2.55001 24.0721
rtibia 19.048
rfoot -12.7544 -12.4466
rtoes 4.86942
lfemur -7.53831 0.221051 -9.67544
ltibia 22.149
lfoot -12.0096 -0.110787
ltoes -13.7333
4
root 6.62469 17.6259 -15.9917 1.60857 -0.300132 -1.38529
lowerback 1.83138 -2.20774 -0.0370108
upperback -0.0482208 -2.91281 3.39286
thorax -0.896749 -1.45194 3.57869
lowerneck -3.26813 -11.7894 -17.6001
upperneck 11.6494 -16.0604 11.0514
head 6.39531 -8.04022 4.96361
rclavicle 3.33958e-014 3.97569e-015
rhumerus 4.52585 12.3865 -60.4182
rradius 104.415
rwrist 9.2415
rhand -20.5834 30.9815
rfingers 7.12502
rthumb 5.7766 1.08025
lclavicle 3.33958e-014 3.97569e-015
lhumerus -4.91249 -0.651585 61.1378
lradius 102.585
lwrist -16.3784
lhand -1.9082 37.0116
lfingers 7.12502
lthumb 23.7614 65.5625
rfemur -5.89764 -2.62011 23.6489
rtibia 19.3628
rfoot -12.9355 -12.3253
rtoes 4.63011
lfemur -7.29547 0.512798 -10.1305
ltibia 21.9697
lfoot -12.2217 0.00629304
ltoes -12.8868
5
root 6.66136 17.6184 -15.9888 1.5924 -0.45812 -0.917633
lowerback 0.953034 -2.11947 -0.536081
upperback 0.48749 -2.83178 3.22875
thorax 0.155821 -1.42606 3.63573
lowerneck -3.80085 -11.6941 -17.1692
upperneck 11.907 -15.8354 10.6744
head 6.46667 -7.91579 4.77736
rclavicle -2.48481e-016 -2.62396e-014
rhumerus 5.29098 11.8787 -60.2869
rradius 104.231
rwrist 9.1777
rhand -21.0742 31.4469
rfingers 7.12502
rthumb 5.30267 1.53321
lclavicle -2.48481e-016 -2.62396e-014
lhumerus -3.63651 -0.52194 61.3517
lradius 102.277
lwrist -16.4678
lhand -2.29426 37.1937
lfingers 7.12502
lthumb 23.3911 65.7922
rfemur -6.14838 -2.7228 22.9713
rtibia 19.8513
rfoot -13.1649 -12.0556
rtoes 4.66576
lfemur -7.0008 0.848666 -10.9052
ltibia 21.5981
lfoot -12.3626 0.577871
ltoes -14.6454
6
root 6.70019 17.6043 -15.985 1.48912 -0.520802 -0.562544
lowerback 1.04558 -2.07533 -0.779418
upperback 0.440486 -2.77285 3.06946
thorax 0.0554055 -1.39513 3.61281
lowerneck -4.30106 -11.5237 -16.6564
upperneck 12.6323 -15.515 9.98425
head 6.6383 -7.76577 4.48801
rclavicle -4.96962e-017 -1.43125e-014
rhumerus 5.27439 11.7823 -60.2497
rradius 104.191
rwrist 9.0658
rhand -22.4447 32.7142
rfingers 7.12502
rthumb 3.97933 2.77158
lclavicle -4.96962e-017 -1.43125e-014
lhumerus -3.24731 -0.791854 61.5331
lradius 102.016
lwrist -16.6645
lhand -2.39439 37.2624
lfingers 7.12502
lthumb 23.2951 65.8731
rfemur -6.29036 -2.96697 22.4007
rtibia 20.3358
rfoot -13.4949 -11.7548
rtoes 5.10742
lfemur -6.62506 1.22449 -11.6193
ltibia 21.2033
lfoot -12.4788 1.32971
ltoes -19.3226
7
root 6.7387 17.5983 -15.9832 1.39893 -0.585158 -0.422511
lowerback 1.05846 -2.03805 -0.808726
upperback 0.487108 -2.72417 2.97864
thorax 0.0895446 -1.37137 3.53464
lowerneck -4.72783 -11.2919 -16.5788
upperneck 13.0851 -15.1512 9.87735
head 6.79109 -7.58274 4.461
rclavicle 5.76476e-015 -2.94201e-014
rhumerus 5.39043 11.5692 -60.2164
rradius 104.131
rwrist 9.06863
rhand -21.0554 31.3785
rfingers 7.12502
rthumb 5.32087 1.46527
lclavicle 5.76476e-015 -2.94201e-014
lhumerus -2.89933 -0.973019 61.4131
lradius 101.993
lwrist -16.7432
lhand -2.03043 37.2616
lfingers 7.12502
lthumb 23.6442 65.8277
rfemur -6.35652 -3.20909 22.0684
rtibia 20.6601
rfoot -13.699 -11.447
rtoes 5.52279
lfemur -6.34925 1.64022 -12.0546
ltibia 20.9255
lfoot -12.4974 1.87205
ltoes -20.7169
8
root 6.77272 17.5985 -15.9857 1.35173 -0.703862 -0.492551
lowerback 1.21625 -2.02216 -0.704639
upperback 0.420313 -2.69899 2.97791
thorax -0.0739306 -1.35606 3.48324
lowerneck -4.98689 -10.9052 -16.8727
upperneck 13.6104 -14.6387 10.1962
head 6.98099 -7.3273 4.65599
rclavicle -1.39149e-014 2.06736e-014
rhumerus 5.38757 11.5039 -60.2143
rradius 104.083
rwrist 9.08357
rhand -20.5511 30.8095
rfingers 7.12502
rthumb 5.80772 0.909082
lclavicle -1.39149e-014 2.06736e-014
lhumerus -2.75887 -1.08893 61.2523
lradius 102.045
lwrist -16.6887
lhand -2.09258 37.2412
lfingers 7.12502
lthumb 23.5846 65.8149
rfemur -6.37797 -3.26235 22.007
rtibia 20.7776
rfoot -13.6464 -11.2889
rtoes 5.06108
lfemur -6.21094 1.90028 -12.1786
ltibia 20.7747
lfoot -12.5034 2.19796
ltoes -17.7788
9
root 6.80413 17.603 -15.9846 1.21348 -0.595738 -0.497765
lowerback 1.49015 -2.10507 -0.672411
upperback 0.307319 -2.80431 2.93117
thorax -0.340208 -1.40473 3.43218
lowerneck -5.24369 -10.482 -16.5664
upperneck 14.1038 -14.0488 9.98783
head 7.06157 -7.03912 4.605
rclavicle -8.64713e-015 -1.51076e-014
rhumerus 5.31886 11.6164 -60.2107
rradius 104.105
rwrist 8.94896
rhand -20.8422 30.8277
rfingers 7.12502
rthumb 5.52674 0.919768
lclavicle -8.64713e-015 -1.51076e-014
lhumerus -2.77701 -1.26912 61.0503
lradius 101.985
lwrist -16.4939
lhand -2.29639 37.2024
lfingers 7.12502
lthumb 23.3891 65.8012
rfemur -6.20317 -3.34711 21.891
rtibia 20.7599
rfoot -13.6265 -11.3475
rtoes 4.23008
lfemur -6.04089 1.68576 -12.3418
ltibia 20.7291
lfoot -12.7556 2.52463
ltoes -15.4051
